<svg xmlns="http://www.w3.org/2000/svg" width="1024" height="1024"><path fill="none" d="M0 0h1024v1024H0z"/><defs><clipPath id="a"><path d="M119 117h466v86H119zm393 11H192l-64 64h448l-64-64z"/></clipPath><clipPath id="c"><path d="M119 501h466v86H119zm457 11H128l64 64h320l64-64z"/></clipPath><clipPath id="e"><path d="M247 309h338v86H247zm265 11H256v64h320l-64-64z"/></clipPath><clipPath id="g"><path d="M439 437h466v86H439zm393 11H512l-64 64h448l-64-64z"/></clipPath><clipPath id="i"><path d="M487 629h418v86H487zm409 11H496v64h336l64-64z"/></clipPath><filter id="b"><feGaussianBlur in="SourceAlpha" stdDeviation="4"/><feOffset dy="2" result="offsetblur"/><feFlood flood-color="#000"/><feComposite in2="offsetblur" operator="in"/></filter><filter id="d"><feGaussianBlur in="SourceAlpha" stdDeviation="4"/><feOffset dy="2" result="offsetblur"/><feFlood flood-color="#000"/><feComposite in2="offsetblur" operator="in"/></filter><filter id="f"><feGaussianBlur in="SourceAlpha" stdDeviation="4"/><feOffset dy="2" result="offsetblur"/><feFlood flood-color="#000"/><feComposite in2="offsetblur" operator="in"/></filter><filter id="h"><feGaussianBlur in="SourceAlpha" stdDeviation="4"/><feOffset dy="2" result="offsetblur"/><feFlood flood-color="#000"/><feComposite in2="offsetblur" operator="in"/></filter><filter id="j"><feGaussianBlur in="SourceAlpha" stdDeviation="4"/><feOffset dy="2" result="offsetblur"/><feFlood flood-color="#000"/><feComposite in2="offsetblur" operator="in"/></filter></defs><path d="M128 192h64v320h-64V192zM512 384h64v128h-64V384z" fill="#60B241"/><path d="m512 128 64 64H128l64-64h320z" clip-path="url(#a)" filter="url(#b)" fill="rgba(0,0,0,0.5)"/><path d="M192 128h320l64 64H128l64-64z" fill="#418C27"/><path d="m576 512-64 64H192l-64-64h448z" clip-path="url(#c)" filter="url(#d)" fill="rgba(0,0,0,0.5)"/><path d="M192 576h320l64-64H128l64 64z" fill="#418C27"/><path d="m512 320 64 64H256v-64h256z" clip-path="url(#e)" filter="url(#f)" fill="rgba(0,0,0,0.5)"/><path d="M256 320h256l64 64H256v-64z" fill="#418C26"/><path d="M832 512h64v128h-64V512zM448 512h64v384h-64V512z" fill="#60B241"/><path d="m832 448 64 64H448l64-64h320z" clip-path="url(#g)" filter="url(#h)" fill="rgba(0,0,0,0.5)"/><path d="M512 448h320l64 64H448l64-64z" fill="#418C27"/><path d="m896 640-64 64H496v-64h400z" clip-path="url(#i)" filter="url(#j)" fill="rgba(0,0,0,0.5)"/><path d="M496 704h336l64-64H496v64z" fill="#418C27"/></svg>